<?xml version="1.0" encoding="utf-8"?><svg xmlns="http://www.w3.org/2000/svg" xmlns:xlink="http://www.w3.org/1999/xlink"><symbol viewBox="0 0 980 804" id="basket" xmlns="http://www.w3.org/2000/svg"><g data-name="Слой 2"><path d="M135 0c6.73 1 13.53 1.69 20.19 3.05C178 7.74 193 20.51 199.46 43.75q55.1 199.67 110.7 399.19c1.16 4.19 2.71 5.75 7.33 5.74q221-.21 442-.17c7 0 14-.55 20.92-1.24A20.54 20.54 0 0 0 797.12 436c8-14.94 16.71-29.6 23.68-45Q871.34 279.08 921 166.79c5.47-12.29 10.91-24.65 15.32-37.34 2.13-6.12 2.31-13.07 2.51-19.66.19-6-2-8.19-8-8.78-6.12-.61-12.3-.72-18.45-.72h-459q-75.75 0-151.49-.09c-12.14 0-19.85-5.53-22.39-15.83A20.1 20.1 0 0 1 295.22 60a48.62 48.62 0 0 1 8.95-.6q256.74.16 513.48.37c34 0 68-.52 102-.22a98.73 98.73 0 0 1 27.52 3.73c18 5.47 28.07 18.77 31.78 37 .26 1.26.7 2.49 1.06 3.73v17c-1.48 6.81-2.12 13.95-4.6 20.37q-10 26-21.41 51.55-51.73 115.74-103.91 231.27c-4.78 10.58-10.94 20.55-16.54 30.75-12.4 22.64-32.42 32.52-57.36 33.95-5.81.34-11.65.42-17.48.42H324c-.33.54-.7.87-.64 1.07 5.5 17.2 13.5 33 26.84 45.51a57.14 57.14 0 0 0 40.23 16.1q65.49.08 131 .05h249.44c13 0 22.06 8.06 22.3 19.86A20.21 20.21 0 0 1 774 592.88c-1.83.12-3.67 0-5.5 0-123.15 0-246.29-.47-369.43.25-45.81.26-78.08-20.12-100.63-58.48-10.83-18.42-16.3-38.78-22-59.2-16.51-59.25-33.6-118.37-50.82-177.45Q193 185.88 159.77 73.92c-5.27-17.92-25.39-32.86-45.09-33-29.49-.19-59-.38-88.48.08-12.61.22-21.64-3.82-26.2-16v-9A25.08 25.08 0 0 1 16 0zm624 804c-10-2.91-20.47-4.74-29.9-8.92-38.72-17.16-61.25-59-54.86-100.4 6.67-43.19 40.66-76 83.79-80.9 50.12-5.68 96.43 29 104.8 78.48 8.49 50.26-23.85 98.63-73.23 109.49-3.53.78-7.07 1.5-10.6 2.25zm11.46-151.52c-29.39-1.74-55.88 22.36-57.7 52.49a56.27 56.27 0 0 0 53.46 59.83c30.24 1.66 57-22.71 58.65-53.32 1.64-31.24-22.21-57.11-54.41-59zM371 804c-10.18-3-20.85-4.78-30.44-9-38.82-17.24-60.51-58.17-54.47-101.13 5.63-40.06 38.86-73.31 79.6-79.65 50.12-7.8 98.71 26 108.26 75.18 10 51.47-21.7 100.71-72.28 112.29-3.87.89-7.78 1.57-11.67 2.35zm11.11-151.52c-29.75-1.71-56 22.59-57.86 53.52-1.81 30.34 22.66 57.13 53.7 58.81 30.53 1.64 56.61-22.32 58.6-53.87 1.93-30.42-22.48-56.63-54.44-58.46z" data-name="Слой 1"/></g></symbol><symbol viewBox="0 0 344.96 344.96" id="check" xmlns="http://www.w3.org/2000/svg"><g data-name="Слой 2"><path d="M321.85 86.24l-40-23.11-23.1-40H212.5L172.48 0l-40 23.11H86.24l-23.11 40-40 23.1v46.21L0 172.48l23.11 40v46.21l40 23.11 23.11 40h46.21l40 23.1 40-23.11h46.21l23.11-40 40-23.11V212.5l23.11-40-23.11-40V86.24zM156.91 243.07a16.79 16.79 0 0 1-23.34 0l-50.45-50.44a16.19 16.19 0 0 1 0-22.89l13.35-13.35a16.19 16.19 0 0 1 22.89 0l25.87 25.87 80.34-80.35a16.19 16.19 0 0 1 22.89 0l13.35 13.35a16.19 16.19 0 0 1 0 22.89z" data-name="Capa 1"/></g></symbol><symbol viewBox="0 0 178.58 155.01" id="mark" xmlns="http://www.w3.org/2000/svg"><g data-name="Слой 2"><g data-name="Слой 1"><path d="M85.66 133.57c0-4.69-.39-8.91.18-13 .24-1.71 2.52-3.12 3.88-4.67 1.31 1.6 3.51 3.06 3.75 4.8.55 4.09.17 8.3.17 13l35.94 12c-1.15-10.19-2.21-19.73-3.3-29.27-1.31-11.41-2.61-22.83-4-34.23-.36-3-.18-5.66 3.31-6.11s4.36 2.39 4.69 5.18q3.21 27.54 6.37 55.09c.31 2.61.7 5.22 1.14 8.47l32-19.28C163.4 102.52 157 79.5 150.45 56c-4.93 2.91-9.52 5.56-14 8.32-2.54 1.55-5 2.37-6.87-.7-2-3.28.49-4.82 2.87-6.24l23-13.82L169 92.6c3 10.9 5.92 21.84 9.17 32.68 1 3.2.19 4.74-2.58 6.36-12.49 7.34-24.79 15-37.34 22.23a10.13 10.13 0 0 1-7.25.68c-12.87-4-25.59-8.44-38.43-12.5A11.62 11.62 0 0 0 86 142c-13 4.12-25.88 8.61-38.91 12.66a9.42 9.42 0 0 1-6.79-.77C27.61 146.58 15.08 139 2.62 131.27c-1.31-.82-2.9-3.19-2.58-4.36 7.47-27.61 15.19-55.15 23-83.31 8.41 5.07 16.58 9.82 24.5 14.95 1.11.73 1 3.32 1.49 5.05-1.9.48-4.16 1.85-5.64 1.26-3.51-1.4-6.65-3.73-10-5.65-1.7-1-3.44-1.93-5.45-3.05-6.49 23.3-12.87 46.19-19.34 69.39l32.9 20c1.08-9.1 2.11-17.56 3.08-26 1.45-12.57 2.78-25.16 4.36-37.72a10.48 10.48 0 0 1 2.47-5.12C52 76 54.56 76 55 76.62c1.06 1.44 2.09 3.47 1.92 5.13-1.43 14.08-3.14 28.14-4.77 42.2-.79 6.9-1.58 13.8-2.45 21.37z"/><path d="M89.58 107.52C72.7 90.61 57.49 73.24 52.18 49.63 46.11 22.69 65-.92 91.37 0a38.26 38.26 0 0 1 36.51 35.65 57.6 57.6 0 0 1-5.39 28.12c-7.67 16.81-19.31 30.6-32.91 43.75zm0-11.41c10.57-10.94 19.48-22.26 25.56-35.63a49.37 49.37 0 0 0 4.76-23.73A30.23 30.23 0 0 0 92.35 8.08c-15.13-1.28-29.2 8.64-32.3 23.29a42.42 42.42 0 0 0 2 24.08C68 71 77.88 83.83 89.61 96.11z"/><path d="M110.74 37.93A20.1 20.1 0 1 1 90.71 18a20 20 0 0 1 20.03 19.93zm-8 .78a12.1 12.1 0 1 0-12.83 11.23 12 12 0 0 0 12.81-11.23z"/></g></g></symbol><symbol viewBox="0 0 886 980" id="user" xmlns="http://www.w3.org/2000/svg"><g data-name="Слой 2"><path d="M0 937c.94-9.58 1.8-19.17 2.84-28.73 5.61-51.63 21.68-99.88 49.35-143.73C101.26 686.76 165 624.31 248.3 583.7c19.52-9.51 40.33-16.37 60.55-24.44.88-.35 1.78-.64 3.59-1.28-4.61-2.52-8.49-4.56-12.3-6.74-76.75-43.81-127.37-108.24-145.28-194.8-22.69-109.67 8.64-204 90.57-280.44 43.14-40.26 95.1-63.58 153.37-72.73 9-1.42 18.13-2.2 27.2-3.27h34c10.05 1.27 20.2 2 30.14 3.9 113.29 21.36 192.09 85.58 231.38 193.79 55.21 152.09-27.31 320.29-181 374.12a290.59 290.59 0 0 1-98 16.39c-54.88-.25-107.6 10.41-157.71 32.7-88.45 39.36-154.09 103.62-200.89 187.48-21.84 39.14-31.83 82-34 126.7-.32 6.49-.52 13-.69 19.48-.32 12.36-5.94 20.17-17.63 24.46a9.16 9.16 0 0 0-1.6 1H20c-10.26-3.07-16.89-9.77-20-20zm442.56-398.11C574 540.05 686.24 434.06 689 299.12 691.81 163.41 582.84 51.5 447.66 49.06 310.34 46.58 199.41 156.2 197 289.29c-2.61 139.33 111.37 250.42 245.56 249.6zM856 980c-9.46-3.65-17.08-9.3-18.76-20-.94-5.88-.69-12-.84-17.95-1.95-79.67-32.6-147.62-84.62-206.76-9.9-11.26-20.5-21.89-30.65-32.93-13.21-14.37-6.56-36.54 12.28-40.86 8.16-1.87 15.88-.16 21.82 5.7 51.89 51.19 94.33 108.52 115.54 179.47a355.33 355.33 0 0 1 14.39 84.46c.1 2 .55 3.9.84 5.84v23c-3.13 10.21-9.71 17-20 20z" data-name="Слой 1"/></g></symbol><symbol viewBox="0 0 510 509.96" id="web" xmlns="http://www.w3.org/2000/svg"><g data-name="Слой 2"><path d="M510 255.1c-.09 141-114.39 255-255.61 254.86C114 509.82-.07 395.46 0 254.88.07 113.87 114.43-.15 255.61 0 396 .15 510.09 114.55 510 255.1zM127.72 264H17.78C16.35 320.83 56.55 405.21 98 432.55a256.61 256.61 0 0 1 59.83-37.24A341.56 341.56 0 0 1 127.72 264zm224.75-147.54a336.46 336.46 0 0 1 29.79 129.7h110.4c-3.49-66.36-29.42-121.63-77.63-167a263 263 0 0 1-62.56 37.3zM95 79.15C46.67 124.79 20.73 180 17.37 246.17h110.37a340.9 340.9 0 0 1 29.43-129.93A261.2 261.2 0 0 1 95 79.15zm320.5 351.33C463.4 385.1 489.22 330 492.64 264h-110.4a336.19 336.19 0 0 1-29.47 128.91 255.1 255.1 0 0 1 62.73 37.57zM172.38 123.9a317.65 317.65 0 0 0-27.55 122.35h100.93a6.13 6.13 0 0 0 .57-1.63c0-35.29.1-70.59 0-105.88 0-1.12-1.89-3-3.09-3.19-4.43-.66-9-.36-13.42-1.14-18.82-3.29-37.55-6.84-57.44-10.51zM264 135.62v110.6h101.21a315.21 315.21 0 0 0-28.73-123.83A258.25 258.25 0 0 1 264 135.62zm-90.4 253.22l4.65-1.56A237.22 237.22 0 0 1 240.73 375c4.52-.24 5.84-1.52 5.81-6.08-.19-33.31-.09-66.63-.11-99.94 0-1.62-.17-3.24-.28-5.09H144.79a321.21 321.21 0 0 0 28.81 124.95zm90.3-125.16v110.53A252.11 252.11 0 0 1 336.77 387c17.76-39.4 27.37-80.22 28.39-123.32zm81.36 144.68a365 365 0 0 1-57.93 81.53c42.72-5.48 80.67-21.73 114.7-48.25a229.62 229.62 0 0 0-56.77-33.28zm55.89-340.12C379.25 46.52 308.42 16.92 288 20.41c10.19 12.59 21.11 24.92 30.7 38.25s18 27.85 27.12 42a233.22 233.22 0 0 0 55.33-32.42zm-292.5-.51c12.34 11.18 43.1 29.1 55.26 32.52 8.75-13.92 16.86-28.11 26.25-41.38S210.4 33 220.9 19.77a237.12 237.12 0 0 0-112.25 47.96zM246.17 20a324.29 324.29 0 0 0-65.54 86.75 227.46 227.46 0 0 0 65.54 11.68zm-134.5 424.1c23.77 21.12 88 47.72 109.58 45.21a345.75 345.75 0 0 1-55.72-78.23c-14.13 4.73-44.31 23.23-53.86 33.02zm134.41-52.34a219.94 219.94 0 0 0-64.74 12.73 324 324 0 0 0 64.74 85.31zm17.68 96.62a322.31 322.31 0 0 0 65.38-85.89c-21.67-6.85-43.09-10.69-65.38-11zm.24-466.6v96.4c15.31 1 57.3-6.73 64.53-12A323.15 323.15 0 0 0 264 21.78z" data-name="Слой 1"/></g></symbol></svg>