<svg xmlns="http://www.w3.org/2000/svg" viewBox="0 0 980 804"><title>basket</title><g id="Слой_2" data-name="Слой 2"><g id="Слой_1-2" data-name="Слой 1"><path d="M135,0c6.73,1,13.53,1.69,20.19,3.05C178,7.74,193,20.51,199.46,43.75q55.1,199.67,110.7,399.19c1.16,4.19,2.71,5.75,7.33,5.74q221-.21,442-.17c7,0,14-.55,20.92-1.24A20.54,20.54,0,0,0,797.12,436c8-14.94,16.71-29.6,23.68-45Q871.34,279.08,921,166.79c5.47-12.29,10.91-24.65,15.32-37.34,2.13-6.12,2.31-13.07,2.51-19.66.19-6-2-8.19-8-8.78-6.12-.61-12.3-.72-18.45-.72q-229.48,0-459,0-75.75,0-151.49-.09c-12.14,0-19.85-5.53-22.39-15.83A20.1,20.1,0,0,1,295.22,60a48.62,48.62,0,0,1,8.95-.6q256.74.16,513.48.37c34,0,68-.52,102-.22a98.73,98.73,0,0,1,27.52,3.73c18,5.47,28.07,18.77,31.78,37,.26,1.26.7,2.49,1.06,3.73v17c-1.48,6.81-2.12,13.95-4.6,20.37q-10,26-21.41,51.55Q902.27,308.67,850.09,424.2c-4.78,10.58-10.94,20.55-16.54,30.75-12.4,22.64-32.42,32.52-57.36,33.95-5.81.34-11.65.42-17.48.42q-214.22,0-428.43,0H324c-.33.54-.7.87-.64,1.07,5.5,17.2,13.5,33,26.84,45.51A57.14,57.14,0,0,0,390.43,552q65.49.08,131,.05H770.87c13,0,22.06,8.06,22.3,19.86A20.21,20.21,0,0,1,774,592.88c-1.83.12-3.67,0-5.5,0-123.15,0-246.29-.47-369.43.25-45.81.26-78.08-20.12-100.63-58.48-10.83-18.42-16.3-38.78-22-59.2C259.93,416.2,242.84,357.08,225.62,298Q193,185.88,159.77,73.92c-5.27-17.92-25.39-32.86-45.09-33-29.49-.19-59-.38-88.48.08C13.59,41.22,4.56,37.18,0,25V16A25.08,25.08,0,0,1,16,0Z"/><path d="M759,804c-10-2.91-20.47-4.74-29.9-8.92-38.72-17.16-61.25-59-54.86-100.4,6.67-43.19,40.66-76,83.79-80.9,50.12-5.68,96.43,29,104.8,78.48,8.49,50.26-23.85,98.63-73.23,109.49-3.53.78-7.07,1.5-10.6,2.25Zm11.46-151.52c-29.39-1.74-55.88,22.36-57.7,52.49a56.27,56.27,0,0,0,53.46,59.83c30.24,1.66,57-22.71,58.65-53.32C826.51,680.24,802.66,654.37,770.46,652.48Z"/><path d="M371,804c-10.18-3-20.85-4.78-30.44-9-38.82-17.24-60.51-58.17-54.47-101.13,5.63-40.06,38.86-73.31,79.6-79.65,50.12-7.8,98.71,26,108.26,75.18,10,51.47-21.7,100.71-72.28,112.29-3.87.89-7.78,1.57-11.67,2.35Zm11.11-151.52c-29.75-1.71-56,22.59-57.86,53.52-1.81,30.34,22.66,57.13,53.7,58.81,30.53,1.64,56.61-22.32,58.6-53.87C438.48,680.52,414.07,654.31,382.11,652.48Z"/></g></g></svg>