<svg xmlns="http://www.w3.org/2000/svg" viewBox="0 0 178.58 155.01"><title>mark</title><g id="Слой_2" data-name="Слой 2"><g id="Слой_1-2" data-name="Слой 1"><path d="M85.66,133.57c0-4.69-.39-8.91.18-13,.24-1.71,2.52-3.12,3.88-4.67,1.31,1.6,3.51,3.06,3.75,4.8.55,4.09.17,8.3.17,13l35.94,12c-1.15-10.19-2.21-19.73-3.3-29.27-1.31-11.41-2.61-22.83-4-34.23-.36-3-.18-5.66,3.31-6.11s4.36,2.39,4.69,5.18q3.21,27.54,6.37,55.09c.31,2.61.7,5.22,1.14,8.47l32-19.28C163.4,102.52,157,79.5,150.45,56c-4.93,2.91-9.52,5.56-14,8.32-2.54,1.55-5,2.37-6.87-.7-2-3.28.49-4.82,2.87-6.24l23-13.82L169,92.6c3,10.9,5.92,21.84,9.17,32.68,1,3.2.19,4.74-2.58,6.36-12.49,7.34-24.79,15-37.34,22.23a10.13,10.13,0,0,1-7.25.68c-12.87-4-25.59-8.44-38.43-12.5A11.62,11.62,0,0,0,86,142c-13,4.12-25.88,8.61-38.91,12.66a9.42,9.42,0,0,1-6.79-.77C27.61,146.58,15.08,139,2.62,131.27c-1.31-.82-2.9-3.19-2.58-4.36,7.47-27.61,15.19-55.15,23-83.31,8.41,5.07,16.58,9.82,24.5,14.95,1.11.73,1,3.32,1.49,5.05-1.9.48-4.16,1.85-5.64,1.26-3.51-1.4-6.65-3.73-10-5.65-1.7-1-3.44-1.93-5.45-3.05-6.49,23.3-12.87,46.19-19.34,69.39l32.9,20c1.08-9.1,2.11-17.56,3.08-26,1.45-12.57,2.78-25.16,4.36-37.72a10.48,10.48,0,0,1,2.47-5.12C52,76,54.56,76,55,76.62c1.06,1.44,2.09,3.47,1.92,5.13-1.43,14.08-3.14,28.14-4.77,42.2-.79,6.9-1.58,13.8-2.45,21.37Z"/><path d="M89.58,107.52C72.7,90.61,57.49,73.24,52.18,49.63,46.11,22.69,65-.92,91.37,0a38.26,38.26,0,0,1,36.51,35.65,57.6,57.6,0,0,1-5.39,28.12C114.82,80.58,103.18,94.37,89.58,107.52Zm0-11.41c10.57-10.94,19.48-22.26,25.56-35.63a49.37,49.37,0,0,0,4.76-23.73A30.23,30.23,0,0,0,92.35,8.08c-15.13-1.28-29.2,8.64-32.3,23.29a42.42,42.42,0,0,0,2,24.08C68,71,77.88,83.83,89.61,96.11Z"/><path d="M110.74,37.93A20.1,20.1,0,1,1,90.71,18,20,20,0,0,1,110.74,37.93Zm-8,.78A12.1,12.1,0,1,0,89.91,49.94,12,12,0,0,0,102.72,38.71Z"/></g></g></svg>