<svg xmlns="http://www.w3.org/2000/svg" viewBox="0 0 886 980"><title>user</title><g id="Слой_2" data-name="Слой 2"><g id="Слой_1-2" data-name="Слой 1"><path d="M0,937c.94-9.58,1.8-19.17,2.84-28.73,5.61-51.63,21.68-99.88,49.35-143.73C101.26,686.76,165,624.31,248.3,583.7c19.52-9.51,40.33-16.37,60.55-24.44.88-.35,1.78-.64,3.59-1.28-4.61-2.52-8.49-4.56-12.3-6.74C223.39,507.43,172.77,443,154.86,356.44c-22.69-109.67,8.64-204,90.57-280.44,43.14-40.26,95.1-63.58,153.37-72.73,9-1.42,18.13-2.2,27.2-3.27h34c10.05,1.27,20.2,2,30.14,3.9C603.43,25.26,682.23,89.48,721.52,197.69c55.21,152.09-27.31,320.29-181,374.12a290.59,290.59,0,0,1-98,16.39c-54.88-.25-107.6,10.41-157.71,32.7C196.36,660.26,130.72,724.52,83.92,808.38c-21.84,39.14-31.83,82-34,126.7-.32,6.49-.52,13-.69,19.48-.32,12.36-5.94,20.17-17.63,24.46a9.16,9.16,0,0,0-1.6,1H20c-10.26-3.07-16.89-9.77-20-20ZM442.56,538.89C574,540.05,686.24,434.06,689,299.12,691.81,163.41,582.84,51.5,447.66,49.06,310.34,46.58,199.41,156.2,197,289.29,194.39,428.62,308.37,539.71,442.56,538.89Z"/><path d="M856,980c-9.46-3.65-17.08-9.3-18.76-20-.94-5.88-.69-12-.84-17.95-1.95-79.67-32.6-147.62-84.62-206.76-9.9-11.26-20.5-21.89-30.65-32.93-13.21-14.37-6.56-36.54,12.28-40.86,8.16-1.87,15.88-.16,21.82,5.7,51.89,51.19,94.33,108.52,115.54,179.47a355.33,355.33,0,0,1,14.39,84.46c.1,2,.55,3.9.84,5.84v23c-3.13,10.21-9.71,17-20,20Z"/></g></g></svg>