<svg xmlns="http://www.w3.org/2000/svg" viewBox="0 0 510 509.96"><title>web</title><g id="Слой_2" data-name="Слой 2"><g id="Слой_1-2" data-name="Слой 1"><path d="M510,255.1c-.09,141-114.39,255-255.61,254.86C114,509.82-.07,395.46,0,254.88.07,113.87,114.43-.15,255.61,0,396,.15,510.09,114.55,510,255.1ZM127.72,264H17.78C16.35,320.83,56.55,405.21,98,432.55a256.61,256.61,0,0,1,59.83-37.24A341.56,341.56,0,0,1,127.72,264ZM352.47,116.46a336.46,336.46,0,0,1,29.79,129.7h110.4c-3.49-66.36-29.42-121.63-77.63-167A263,263,0,0,1,352.47,116.46ZM95,79.15C46.67,124.79,20.73,180,17.37,246.17H127.74a340.9,340.9,0,0,1,29.43-129.93A261.2,261.2,0,0,1,95,79.15ZM415.5,430.48C463.4,385.1,489.22,330,492.64,264H382.24a336.19,336.19,0,0,1-29.47,128.91A255.1,255.1,0,0,1,415.5,430.48ZM172.38,123.9a317.65,317.65,0,0,0-27.55,122.35H245.76a6.13,6.13,0,0,0,.57-1.63c0-35.29.1-70.59,0-105.88,0-1.12-1.89-3-3.09-3.19-4.43-.66-9-.36-13.42-1.14C211,131.12,192.27,127.57,172.38,123.9ZM264,135.62v110.6H365.21a315.21,315.21,0,0,0-28.73-123.83A258.25,258.25,0,0,1,264,135.62ZM173.6,388.84l4.65-1.56A237.22,237.22,0,0,1,240.73,375c4.52-.24,5.84-1.52,5.81-6.08-.19-33.31-.09-66.63-.11-99.94,0-1.62-.17-3.24-.28-5.09H144.79A321.21,321.21,0,0,0,173.6,388.84Zm90.3-125.16V374.21A252.11,252.11,0,0,1,336.77,387c17.76-39.4,27.37-80.22,28.39-123.32Zm81.36,144.68a365,365,0,0,1-57.93,81.53c42.72-5.48,80.67-21.73,114.7-48.25A229.62,229.62,0,0,0,345.26,408.36ZM401.15,68.24C379.25,46.52,308.42,16.92,288,20.41,298.19,33,309.11,45.33,318.7,58.66s18,27.85,27.12,42A233.22,233.22,0,0,0,401.15,68.24Zm-292.5-.51c12.34,11.18,43.1,29.1,55.26,32.52,8.75-13.92,16.86-28.11,26.25-41.38S210.4,33,220.9,19.77A237.12,237.12,0,0,0,108.65,67.73ZM246.17,20a324.29,324.29,0,0,0-65.54,86.75,227.46,227.46,0,0,0,65.54,11.68ZM111.67,444.1c23.77,21.12,88,47.72,109.58,45.21a345.75,345.75,0,0,1-55.72-78.23C151.4,415.81,121.22,434.31,111.67,444.1Zm134.41-52.34a219.94,219.94,0,0,0-64.74,12.73,324,324,0,0,0,64.74,85.31Zm17.68,96.62a322.31,322.31,0,0,0,65.38-85.89c-21.67-6.85-43.09-10.69-65.38-11ZM264,21.78v96.4c15.31,1,57.3-6.73,64.53-12A323.15,323.15,0,0,0,264,21.78Z"/></g></g></svg>